<?xml version="1.0" encoding="utf-8"?>
<svg x="0pt" y="0pt" width="500pt" height="500pt" viewBox="0 0 500 500" xmlns="http://www.w3.org/2000/svg" xmlns:xlink="http://www.w3.org/1999/xlink">
  <!--Generated by AMDN-->
  <g id="Layer 1">
    <g id="layer1">
      <path id="path151" style="fill:#000000;fill-opacity:1;fill-rule:nonzero;opacity:1;stroke:none;" d="M19.2041,268.16 C12.8027,288.31,6.40134,308.46,-5.47037e-05,328.61 C31.5328,336.958,63.0656,345.306,94.5984,353.654 C127.317,352.502,160.035,351.351,192.753,350.199 C232.584,342.139,272.415,334.079,312.246,326.019 C343.305,313.929,374.363,301.839,405.422,289.749 C432.213,277.659,459.004,265.569,485.795,253.479 C483.424,238.223,481.053,222.966,478.682,207.71 C450.232,217.209,421.781,226.708,393.33,236.208 C350.18,251.752,307.03,267.296,263.88,282.841 C210.298,290.325,156.716,297.809,103.134,305.293 C103.134,305.293,19.2041,268.16,19.2041,268.16 z"/>
      <path id="path152" style="fill:#000000;fill-opacity:1;fill-rule:nonzero;opacity:1;stroke:none;" d="M3.53592,340.675 C29.6157,347.008,55.6955,353.341,81.7753,359.674 C84.8574,377.809,87.9396,395.944,91.0217,414.079 C65.179,407.458,39.3363,400.838,13.4936,394.217 C13.4936,394.217,3.53592,340.675,3.53592,340.675 z"/>
      <path id="path153" style="fill:#000000;fill-opacity:1;fill-rule:nonzero;opacity:1;stroke:none;" d="M89.5992,363.992 C123.74,362.552,157.881,361.113,192.022,359.674 C195.104,374.93,198.186,390.187,201.268,405.443 C167.127,406.595,132.986,407.746,98.8457,408.897 C98.8457,408.897,89.5992,363.992,89.5992,363.992 z"/>
      <path id="path154" style="fill:#000000;fill-opacity:1;fill-rule:nonzero;opacity:1;stroke:none;" d="M202.691,364.855 C236.831,357.947,270.972,351.038,305.113,344.129 C305.824,357.659,306.535,371.188,307.247,384.717 C275.951,390.762,244.655,396.807,213.36,402.852 C213.36,402.852,202.691,364.855,202.691,364.855 z"/>
      <path id="path155" style="fill:#000000;fill-opacity:1;fill-rule:nonzero;opacity:1;stroke:none;" d="M312.937,340.675 C313.885,353.341,314.834,366.007,315.782,378.672 C315.782,378.672,404.69,343.266,396.155,343.266 C387.62,343.266,389.042,319.086,389.042,319.086 C389.042,319.086,312.937,340.675,312.937,340.675 z"/>
      <path id="path156" style="fill:#000000;fill-opacity:1;fill-rule:nonzero;opacity:1;stroke:none;" d="M394.021,313.904 C397.578,322.828,401.134,331.752,404.69,340.675 C422.946,330.6,441.202,320.525,459.458,310.45 C456.85,302.102,454.242,293.754,451.634,285.407 C451.634,285.407,394.021,313.904,394.021,313.904 z"/>
      <path id="path157" style="fill:#000000;fill-opacity:1;fill-rule:nonzero;opacity:1;stroke:none;" d="M459.458,284.543 C462.303,292.603,465.148,300.663,467.993,308.723 C477.477,301.239,486.96,293.754,496.444,286.27 C493.361,277.922,490.279,269.574,487.197,261.226 C487.197,261.226,459.458,284.543,459.458,284.543 z"/>
      <path id="path158" style="fill:#000000;fill-opacity:1;fill-rule:nonzero;opacity:1;stroke:none;" d="M224.029,296.633 C207.669,98.8747,238.254,85.9211,238.254,85.9211 C238.254,85.9211,258.881,100.602,258.881,100.602 C258.881,100.602,246.078,174.869,246.078,194.731 C246.078,214.594,253.19,281.089,253.19,281.089 C254.139,283.392,255.087,285.694,256.036,287.997 C256.036,287.997,224.029,296.633,224.029,296.633 z"/>
      <path id="path159" style="fill:#000000;fill-opacity:1;fill-rule:nonzero;opacity:1;stroke:none;" d="M224.74,91.9661 C221.183,104.92,217.627,117.873,214.071,130.827 C213.122,146.083,212.174,161.34,211.226,176.596 C212.411,188.686,213.597,200.776,214.782,212.866 C198.423,202.216,182.064,191.565,165.705,180.914 C163.808,170.263,161.911,159.613,160.015,148.962 C160.015,148.962,160.015,123.055,160.015,123.055 C163.808,110.965,167.601,98.8747,171.395,86.7847 C171.395,86.7847,224.74,91.9661,224.74,91.9661 z"/>
      <path id="path160" style="fill:#000000;fill-opacity:1;fill-rule:nonzero;opacity:1;stroke:none;" d="M166.416,190.413 C181.59,200.201,196.763,209.988,211.937,219.775 C211.7,226.971,211.463,234.168,211.226,241.364 C212.174,249.136,213.122,256.909,214.071,264.681 C215.019,268.135,215.968,271.589,216.916,275.044 C216.916,275.044,184.198,253.454,184.198,253.454 C184.198,253.454,158.592,230.138,158.592,230.138 C158.592,230.138,166.416,190.413,166.416,190.413 z"/>
      <path id="path161" style="fill:#000000;fill-opacity:1;fill-rule:nonzero;opacity:1;stroke:none;" d="M457.324,223.229 C464.437,211.139,471.549,199.049,478.662,186.959 C485.775,200.776,492.887,214.594,500,228.411 C493.124,237.622,486.249,246.834,479.373,256.045 C479.373,256.045,457.324,223.229,457.324,223.229 z"/>
      <path id="path162" style="fill:#000000;fill-opacity:1;fill-rule:nonzero;opacity:1;stroke:none;" d="M44.7894,280.225 C60.6743,279.937,76.5593,279.649,92.4442,279.362 C133.461,266.696,174.477,254.03,215.493,241.364 C235.172,237.622,254.85,233.88,274.529,230.138 C294.681,228.699,314.834,227.259,334.986,225.82 C349.449,225.82,363.911,225.82,378.373,225.82 C384.538,226.396,390.702,226.971,396.866,227.547 C385.723,231.865,374.58,236.183,363.437,240.501 C354.902,242.516,346.366,244.531,337.831,246.546 C327.399,249.424,316.967,252.303,306.536,255.181 C292.547,257.484,278.559,259.787,264.571,262.09 C248.212,262.954,231.852,263.817,215.493,264.681 C209.803,267.559,204.113,270.438,198.423,273.316 C184.672,276.195,170.921,279.074,157.169,281.952 C135.12,285.694,113.071,289.436,91.0217,293.179 C82.4865,293.466,73.9513,293.754,65.4161,294.042 C56.6438,288.861,47.8716,283.679,39.0993,278.498 C39.0993,278.498,44.7894,280.225,44.7894,280.225 z"/>
    </g>
  </g>
</svg>
